<?xml version="1.0" encoding="utf-8"?>
<!DOCTYPE svg PUBLIC "-//W3C//DTD SVG 1.0//EN" "http://www.w3.org/TR/2001/REC-SVG-20010904/DTD/svg10.dtd">
<svg version="1.0" xmlns="http://www.w3.org/2000/svg" width="600px" height="163px" viewBox="0 0 600 163" preserveAspectRatio="xMidYMid meet">
 <g fill="#ffffff">
  <path d="M0 81.50 l0 -81.50 300 0 300 0 0 81.50 0 81.50 -300 0 -300 0 0 -81.50z m407 51.50 c6.20 -1.20 11 -4.70 13.45 -9.95 l1.30 -2.80 0.15 -22.60 0.15 -22.65 -3 0 c-2.85 0 -3.05 0.10 -3.05 1.15 0 2.55 -0.55 3.35 -2.20 3.35 -1.15 0 -2.05 -0.45 -3.05 -1.50 -1.65 -1.70 -5.95 -3.50 -8.45 -3.50 -4.90 0 -10.70 3.85 -13.45 8.85 -4.50 8.35 -3.45 21.05 2.40 27.50 5.45 6.10 12.80 7.20 18.55 2.85 1.40 -1.10 2.75 -1.70 3.75 -1.70 l1.55 0 -0.20 4.90 c-0.20 5.60 -1.25 8.05 -4.25 10.10 -1.50 1 -2.50 1.25 -6.45 1.40 -5.30 0.25 -8.30 -0.40 -10.80 -2.25 l-1.65 -1.20 -1.15 1.35 -1.20 1.35 1.20 0.95 c2.95 2.35 9.20 4.80 12.45 4.85 0.75 0.05 2.50 -0.20 3.95 -0.45z m-327 -16.45 c0.25 -0.55 0.50 -3.90 0.50 -7.50 l0 -6.55 6.90 0 c4.70 0 7.10 -0.20 7.50 -0.60 0.40 -0.40 0.60 -2.80 0.60 -7.50 l0 -6.90 7 0 c6.35 0 7 -0.10 7.50 -0.95 0.30 -0.60 0.50 -6.30 0.50 -15 l0 -14.05 14.50 0 c13.80 0 14.50 -0.05 15 -0.95 0.25 -0.55 0.50 -3.90 0.50 -7.50 0 -5.95 -0.10 -6.55 -0.95 -7.05 -0.55 -0.25 -3.90 -0.50 -7.50 -0.50 l-6.55 0 0 -7 c0 -6.35 -0.10 -7 -0.95 -7.50 -0.55 -0.25 -3.80 -0.50 -7.25 -0.50 -5 0 -6.40 0.15 -7 0.80 -0.70 0.65 -0.80 2.75 -0.80 15 l0 14.20 -14.20 0 c-12.25 0 -14.35 0.10 -15 0.80 -0.65 0.60 -0.80 2.05 -0.80 7.50 l0 6.70 -6.55 0 c-3.60 0 -6.95 0.25 -7.50 0.50 -0.85 0.50 -0.95 1.15 -0.95 7.50 l0 7 -6.70 0 c-5.45 0 -6.90 0.15 -7.50 0.80 -0.70 0.65 -0.80 2.70 -0.80 14.90 0 10.30 0.15 14.25 0.60 14.70 0.45 0.45 4.45 0.60 15 0.60 13.70 0 14.40 -0.05 14.90 -0.95z m153 -0.60 c6.30 -2.70 10.05 -10.20 10.05 -19.95 0 -11.50 -4.65 -18.85 -13.20 -21.05 -3.05 -0.75 -6.55 0.10 -9.95 2.35 -1.40 0.95 -3.15 1.70 -3.95 1.70 l-1.45 0 0 -11 0 -11 -3.50 0 -3.50 0 0 29.75 0 29.75 2.95 0 3 0 0.15 -2.10 c0.15 -2.05 0.25 -2.15 1.85 -2.30 1.20 -0.15 1.85 0.10 2.40 0.85 0.85 1.25 4.70 3.55 6.80 4.10 2.25 0.55 5.45 0.15 8.35 -1.10z m57.15 0.70 c0.20 -0.10 0.35 -1.05 0.35 -2.10 l0 -1.90 -3.10 -0.30 c-5.10 -0.45 -4.90 0.20 -4.90 -17.40 l0 -14.95 3.75 0 3.75 0 0 -2.25 0 -2.25 -3.75 0 -3.75 0 0 -5.25 0 -5.25 -3.50 0 -3.50 0 0 5.25 0 5.25 -3.75 0 -3.75 0 0 2.25 0 2.25 3.75 0 3.70 0 0.15 14.90 c0.15 14.40 0.20 14.95 1.30 17.20 1.15 2.35 3.25 4.05 6 4.90 1.25 0.45 6.40 0.20 7.25 -0.35z m30.45 0.30 c3.40 -0.70 7.20 -2.60 9.25 -4.55 l1.60 -1.55 -1.25 -1 -1.30 -1 -1.45 1.10 c-2.35 1.75 -5.30 2.55 -9.40 2.55 -5.20 0 -7.25 -0.70 -9.85 -3.25 -2.40 -2.40 -3.90 -6.35 -3.60 -9.60 l0.15 -1.85 14.25 -0.05 14.25 0 -0.10 -3.65 c-0.35 -11.50 -7.10 -19.20 -16.90 -19.30 -14.50 -0.10 -23.60 18.65 -15.90 32.80 3 5.50 9.75 9.60 16.25 9.85 0.75 0.05 2.55 -0.20 4 -0.50z m200.05 -0.20 c3.45 -0.90 6 -2.15 8.35 -4.15 l1.75 -1.50 -1.20 -1.30 c-1.20 -1.30 -1.25 -1.30 -2.25 -0.35 -2.25 2 -4.45 2.75 -9.20 2.95 -5.55 0.25 -8 -0.50 -10.75 -3.30 -2.15 -2.20 -3.35 -5.30 -3.35 -8.80 l0 -2.55 14.25 0.20 14.25 0.15 0 -3 c0 -11.10 -5.75 -18.65 -15.55 -20.35 -2.60 -0.45 -7.70 0.95 -10.80 3 -8.50 5.65 -11.85 18.40 -7.40 28.15 2.40 5.30 8.25 9.95 13.75 11.05 3.40 0.65 5 0.60 8.15 -0.20z m-322.15 -2.75 l0 -2.50 -14.10 -0.10 -14.15 -0.15 -0.15 -10.85 -0.10 -10.90 12.25 0 12.25 0 0 -2.50 0 -2.50 -12.25 0 -12.25 0 0 -9.50 0 -9.50 14.30 0 14.25 0 -0.15 -2.60 -0.15 -2.65 -17.85 -0.15 -17.90 -0.10 0 28.25 0 28.25 18 0 18 0 0 -2.50z m62 -18 l0 -20.50 -3.20 0 c-3.15 0 -3.20 0 -3.50 1.55 -0.15 0.85 -0.30 9.40 -0.30 18.95 0 9.55 0.15 18.10 0.30 18.95 0.30 1.55 0.35 1.55 3.50 1.55 l3.20 0 0 -20.50z m88.50 4.70 l0 -15.85 2.15 -2.10 c2.60 -2.60 5.30 -3.45 9.95 -3.10 3.65 0.25 5.35 1.05 6.75 3.20 0.80 1.20 0.90 3.05 1.05 17.50 l0.15 16.15 3.50 0 3.55 0 -0.20 -15.35 c-0.20 -12.90 -0.35 -15.85 -1.10 -18.05 -1.90 -5.85 -7.75 -9.35 -13.70 -8.15 -2.95 0.60 -6.25 2.30 -7.80 4 -0.60 0.65 -1.55 1.05 -2.60 1.05 -1.55 0 -1.65 -0.10 -2 -2.25 l-0.30 -2.25 -3.20 0 -3.20 0 0 20.15 c0 11.10 0.15 20.35 0.35 20.50 0.15 0.20 1.75 0.35 3.50 0.35 l3.15 0 0 -15.80z m92 -4.70 l0 -20.50 -3.50 0 -3.50 0 0 20.50 0 20.50 3.50 0 3.50 0 0 -20.50z m19 4.50 l0 -16 1.95 -1.95 c1.35 -1.35 2.65 -2.10 4.55 -2.55 3.15 -0.75 7.75 -0.40 9.95 0.75 2.90 1.45 3.05 2.45 3.05 20 l0 15.75 3.50 0 3.50 0 0 -14.90 c0 -16.25 -0.30 -18.55 -2.75 -22.10 -1.90 -2.75 -6.05 -4.75 -9.75 -4.70 -3.10 0 -7.35 1.70 -9.65 3.90 -0.95 0.90 -1.95 1.30 -3.15 1.30 -1.70 0 -1.70 0 -1.70 -2.25 l0 -2.25 -3.25 0 -3.25 0 0 20.50 0 20.50 3.50 0 3.50 0 0 -16z m90.95 -30.35 c0 -0.25 -0.20 -0.85 -0.45 -1.40 -0.40 -0.90 -0.45 -0.85 -0.45 0.40 -0.05 0.75 0.20 1.35 0.45 1.35 0.30 0 0.50 -0.15 0.45 -0.35z m8.55 -1 c0 -1.10 -0.10 -1.25 -0.50 -0.65 -0.65 1 -0.65 2 0 2 0.30 0 0.50 -0.60 0.50 -1.35z m-300.05 -4.45 c0.90 -0.75 1.55 -1.75 1.55 -2.40 0 -1.50 -2.10 -3.40 -3.75 -3.40 -1.65 0 -3.75 1.90 -3.75 3.40 0 1.15 2.55 3.70 3.75 3.70 0.35 0 1.35 -0.60 2.20 -1.30z m179.25 0.80 c0.70 -0.25 1.65 -1.05 2.10 -1.75 0.75 -1.10 0.75 -1.45 0.15 -2.55 -0.35 -0.70 -1.30 -1.60 -2.05 -2 -1.25 -0.65 -1.60 -0.65 -2.90 0.05 -2.85 1.45 -3.10 3.80 -0.65 5.75 1.45 1.15 1.65 1.15 3.35 0.50z"/>
  <path d="M399.25 110.55 c-4.55 -2.05 -6.25 -6.10 -6.25 -14.75 0 -11.65 3.25 -16.25 11.50 -16.30 4.40 0 6.70 0.75 8.75 2.80 l1.75 1.75 0 11.40 0 11.40 -1.70 1.70 c-0.95 0.90 -2.50 1.95 -3.40 2.25 -2.60 0.95 -8.30 0.85 -10.65 -0.25z"/>
  <path d="M219.75 111.75 c-1.10 -0.40 -2.75 -1.50 -3.60 -2.45 l-1.65 -1.80 0 -11.55 0 -11.55 1.90 -1.90 c2.40 -2.40 5.20 -3.20 9.80 -2.85 6.20 0.55 8.90 3.60 9.90 11.25 1.05 8.10 -0.60 16.75 -3.65 19.30 -2.70 2.30 -8.60 3 -12.70 1.55z"/>
  <path d="M304.65 90.80 c0.30 -2.90 1.80 -6.85 3.25 -8.50 2.20 -2.45 8.15 -3.55 12.70 -2.30 3.55 1 5.90 5.25 5.90 10.70 l0 2.80 -11.05 0 -11.10 0 0.30 -2.70z"/>
  <path d="M504 91.25 c0 -4.65 3.10 -9.85 6.65 -11.20 0.80 -0.30 2.95 -0.55 4.80 -0.55 6.60 0 9.70 3.10 10.35 10.40 l0.35 3.60 -11.10 0 -11.05 0 0 -2.25z"/>
 </g>
 <g fill="#dc551f">
  <path d="M397.65 134.25 c-4.35 -1.20 -9.70 -4.30 -10.35 -6.05 -0.25 -0.65 3.35 -6.20 4 -6.20 0.15 0 1.30 0.85 2.65 1.90 3.10 2.45 6.10 3.30 10.30 2.95 5.80 -0.45 8.70 -3.60 9.15 -9.95 l0.25 -3.50 -2.30 1.75 c-4.35 3.30 -11.80 3.80 -16.80 1.05 -6.75 -3.65 -10.05 -10.65 -10.05 -21.15 0 -5.10 1.05 -9.80 2.85 -13.20 1.90 -3.40 5.90 -6.95 9.15 -8 5.50 -1.80 12.65 -0.60 15.75 2.65 1.30 1.35 1.50 1.45 1.85 0.65 0.15 -0.50 0.35 -1.50 0.35 -2.25 l0.05 -1.40 4.55 0 4.50 0 -0.15 24.15 -0.15 24.10 -1.30 2.80 c-3.85 8.20 -14.35 12.35 -24.30 9.70z m10.75 -24.95 c0.90 -0.30 2.45 -1.35 3.40 -2.25 l1.70 -1.70 0 -9.90 0 -9.90 -1.75 -1.75 c-2.80 -2.85 -7.25 -3.55 -11.05 -1.85 -4.15 1.90 -6.20 6.50 -6.20 13.85 0 4.75 1 8.55 2.85 10.75 2.55 3.05 7.15 4.20 11.05 2.75z"/>
  <path d="M48.60 118.40 c-0.45 -0.45 -0.60 -4.75 -0.60 -16.20 0 -13.55 0.10 -15.75 0.80 -16.40 0.60 -0.65 2.05 -0.80 7.50 -0.80 l6.70 0 0 -7 c0 -6.35 0.10 -7 0.95 -7.50 0.55 -0.25 3.90 -0.50 7.50 -0.50 l6.55 0 0 -6.70 c0 -5.45 0.15 -6.90 0.80 -7.50 0.65 -0.70 2.75 -0.80 15 -0.80 l14.20 0 0 -14.20 c0 -12.25 0.10 -14.35 0.80 -15 0.65 -0.65 2.15 -0.80 8.50 -0.80 4.40 0 8.20 0.20 8.75 0.50 0.85 0.50 0.95 1.15 0.95 7.50 l0 7 6.55 0 c3.60 0 6.95 0.25 7.50 0.50 0.90 0.50 0.95 1.15 0.95 8.55 0 4.55 -0.20 8.45 -0.50 9 -0.50 0.90 -1.20 0.95 -15 0.95 l-14.50 0 0 14.05 c0 8.70 -0.20 14.40 -0.50 15 -0.50 0.85 -1.15 0.95 -7.50 0.95 l-7 0 0 6.90 c0 4.70 -0.20 7.10 -0.60 7.50 -0.40 0.40 -2.80 0.60 -7.50 0.60 l-6.90 0 0 6.55 c0 3.60 -0.25 6.95 -0.50 7.50 -0.50 0.90 -1.25 0.95 -16.40 0.95 -11.70 0 -16.05 -0.15 -16.50 -0.60z"/>
  <path d="M223.15 118.55 c-2.10 -0.55 -5.95 -2.85 -6.80 -4.05 -0.90 -1.30 -1.35 -0.80 -1.35 1.60 l0 1.90 -4.50 0 -4.50 0 0.10 -31.30 0.15 -31.30 4.75 0 4.75 0 0.15 11.05 0.10 11.05 2.10 -1.50 c6.20 -4.50 15.85 -3.65 20.85 1.75 4.10 4.45 5.70 9.60 5.70 18.25 0.05 14.30 -5.75 22.35 -16.40 22.80 -1.90 0.10 -4.20 -0.05 -5.10 -0.25z m4.45 -8.05 c2.75 -0.80 4.70 -2.70 5.80 -5.65 2 -5.35 1.80 -14.10 -0.40 -18.65 -2.75 -5.65 -10.50 -6.80 -15.10 -2.20 l-1.90 1.90 0 10.05 0 10.05 1.65 1.80 c2.55 2.75 6.15 3.75 9.95 2.70z"/>
  <path d="M281.40 118.55 c-2.80 -0.90 -4.85 -2.60 -6 -4.95 -1.10 -2.25 -1.15 -2.80 -1.30 -17.20 l-0.15 -14.90 -3.70 0 -3.75 0 0 -3.75 0 -3.75 3.75 0 3.75 0 0 -5.25 0 -5.25 5 0 5 0 0 5.25 0 5.25 3.65 0 c2.05 0 3.80 0.10 3.90 0.20 0.10 0.10 0.15 1.80 0.05 3.75 l-0.20 3.55 -3.70 0 -3.70 0 0 13.45 c0 16.10 -0.10 15.85 4.95 15.70 l3.05 -0.05 0 3.65 c0 2.05 -0.20 3.85 -0.50 4 -0.85 0.50 -8.70 0.75 -10.10 0.30z"/>
  <path d="M311.70 118.50 c-1.15 -0.25 -3.25 -1 -4.70 -1.75 -7.25 -3.65 -11 -10.55 -11 -20.10 0 -10.55 4.15 -18.15 11.90 -21.80 3.10 -1.50 3.75 -1.60 8.35 -1.60 4.05 0.05 5.45 0.25 7.45 1.15 3.55 1.60 5.60 3.30 7.55 6.25 2.35 3.65 3.40 7.65 3.45 13.60 l0.05 5 -14.20 0.10 c-7.80 0.05 -14.30 0.20 -14.40 0.35 -0.15 0.10 0.15 1.50 0.60 3.05 1 3.45 4.15 6.90 7.05 7.70 4.65 1.30 9.75 0.20 12.95 -2.70 1.05 -0.95 1.95 -1.75 2.10 -1.75 0.50 0 5.15 4.30 5.15 4.75 0 1 -4.25 4.65 -6.75 5.90 -4.40 2.20 -10.35 2.85 -15.55 1.85z m13.30 -27.80 c0 -2.45 -1.20 -5.35 -3 -7.25 -2.95 -3.10 -8.35 -3.20 -11.90 -0.20 -1.40 1.20 -3.10 4.50 -3.80 7.40 l-0.30 1.35 9.50 0 9.50 0 0 -1.30z"/>
  <path d="M511 118.45 c-5.50 -1.10 -11.30 -5.75 -13.75 -11.10 -2.65 -5.75 -2.75 -14.85 -0.25 -21.50 3.05 -8.20 11.35 -13.45 20 -12.70 4.75 0.45 7.70 1.65 10.65 4.35 4.45 4.10 6.35 9.30 6.35 17.55 l0 4.50 -14.25 -0.15 c-14.25 -0.15 -14.25 -0.15 -14.25 0.90 0 3.75 3.55 8.55 7.35 10 4.20 1.60 10.60 0.20 13.60 -3 0.70 -0.70 1.45 -1.30 1.80 -1.30 0.30 0 1.60 1.10 2.95 2.45 l2.40 2.45 -2.25 2.25 c-4.85 4.90 -12.45 6.85 -20.35 5.30z m13.20 -28.55 c-0.45 -3.25 -2.05 -6.25 -3.95 -7.40 -5.30 -3.25 -11.40 -0.90 -13.75 5.30 -1.65 4.50 -2.25 4.20 8.50 4.20 l9.50 0 -0.30 -2.10z"/>
  <path d="M161 88.25 l0 -29.75 19.40 0.10 19.35 0.15 0.15 4.15 0.15 4.10 -14.30 0 -14.25 0 0 8 0 8 12.25 0 12.25 0 0 4 0 4 -12.25 0 -12.25 0 0.10 9.40 0.15 9.35 14 0.10 14 0.10 0.15 4 0.15 4.05 -19.55 0 -19.50 0 0 -29.75z"/>
  <path d="M252.30 117.55 c-0.15 -0.25 -0.25 -10.10 -0.15 -21.85 l0.10 -21.45 4.90 -0.15 4.85 -0.15 0 22.05 0 22 -4.70 0 c-2.60 0 -4.85 -0.20 -5 -0.45z"/>
  <path d="M340.85 117.70 c-0.20 -0.20 -0.35 -10.10 -0.35 -22.05 l0 -21.65 4.70 0 4.70 0 0.35 2.25 0.30 2.30 1.85 -1.60 c2.55 -2.25 5.60 -3.45 9.50 -3.80 4.95 -0.40 8.70 0.80 11.45 3.65 3.60 3.75 3.80 4.95 4.05 24.35 l0.15 16.85 -5 0 -5.05 0 0 -15.10 c0 -8.80 -0.20 -15.90 -0.50 -17 -1.55 -5.55 -9.55 -6.50 -14.40 -1.65 l-2.15 2.15 0.05 15.65 0.05 15.70 -4.65 0.15 c-2.60 0.05 -4.85 0 -5.05 -0.20z"/>
  <path d="M432.50 96 l0 -22 5 0 5 0 0 22 0 22 -5 0 -5 0 0 -22z"/>
  <path d="M451.50 96 l0 -22 4.75 0 4.75 0 0 2.25 c0 1.25 0.10 2.25 0.20 2.25 0.15 0 0.90 -0.60 1.65 -1.30 0.75 -0.75 2.65 -1.95 4.15 -2.65 2.30 -1.10 3.45 -1.30 7 -1.30 3.65 0 4.65 0.20 7.05 1.40 1.85 0.90 3.30 2.05 4.20 3.35 2.50 3.60 2.75 5.75 2.75 23.60 l0 16.40 -5 0 -5 0 0 -15.75 c0 -17.30 -0.20 -18.55 -2.85 -19.90 -4 -2.05 -8.60 -1.40 -11.70 1.70 l-1.95 1.95 0 16 0 16 -5 0 -5 0 0 -22z"/>
  <path d="M540.85 78.20 c-0.20 -0.20 -0.35 -2.60 -0.35 -5.30 l0 -4.90 -1.50 0 c-1.15 0 -1.50 -0.20 -1.50 -1 0 -0.95 0.35 -1 4.50 -1 4.15 0 4.50 0.05 4.50 1 0 0.80 -0.35 1 -1.50 1 l-1.45 0 -0.15 5.15 c-0.15 4.70 -0.25 5.10 -1.15 5.25 -0.60 0.10 -1.20 0 -1.40 -0.20z"/>
  <path d="M548.50 72.20 l0 -6.25 1.55 0.15 c1.50 0.15 1.65 0.40 2.90 3.90 0.70 2.05 1.55 3.65 1.80 3.50 0.30 -0.15 1 -1.70 1.65 -3.50 1.30 -3.80 1.60 -4.15 3.15 -3.90 1.20 0.15 1.20 0.25 1.35 6.30 l0.15 6.10 -1.30 0 c-1.20 0 -1.25 -0.15 -1.25 -2.95 0 -1.65 -0.20 -3.10 -0.45 -3.25 -0.20 -0.15 -0.80 0.90 -1.25 2.35 -0.45 1.40 -1 2.90 -1.25 3.30 -0.75 1.15 -1.95 0.20 -2.60 -2.05 -0.35 -1.20 -0.95 -2.60 -1.30 -3.15 -0.55 -0.85 -0.65 -0.55 -0.65 2.40 0 3.25 -0.05 3.35 -1.25 3.35 l-1.25 0 0 -6.30z"/>
  <path d="M253.40 66.05 c-1.40 -1.25 -1.65 -1.80 -1.65 -3.75 0 -1.80 0.30 -2.55 1.40 -3.65 1.15 -1.20 1.80 -1.40 4.10 -1.40 2.30 0 2.95 0.20 4.10 1.40 1.10 1.10 1.40 1.85 1.40 3.65 0 1.95 -0.25 2.50 -1.65 3.75 -1.25 1.15 -2.10 1.45 -3.85 1.45 -1.75 0 -2.60 -0.30 -3.85 -1.45z"/>
  <path d="M433.50 66.10 c-1.20 -1.20 -1.50 -1.95 -1.50 -3.60 0 -2.60 0.65 -3.80 2.50 -4.75 4.10 -2.10 8.45 0.25 8.50 4.60 0 3.20 -1.55 4.75 -5.15 5.05 -2.60 0.20 -2.90 0.10 -4.35 -1.30z"/>
 </g>
<g opacity="0.5" transform="rotate(-45, 300.0, 81.5)">
  <text x="50%" y="50%" font-size="20" text-anchor="middle" fill="lightgray" dominant-baseline="middle">
    generated by vectorizer.io
  </text>
</g>
</svg>